<mxfile host="app.diagrams.net" agent="Mozilla/5.0 (Windows NT 10.0; Win64; x64) AppleWebKit/537.36 (KHTML, like Gecko) Chrome/137.0.0.0 Safari/537.36" version="27.1.6">
  <diagram name="PÃ¡gina-1" id="5g2-y68eEW8penshnPrC">
    <mxGraphModel dx="788" dy="474" grid="1" gridSize="10" guides="1" tooltips="1" connect="1" arrows="1" fold="1" page="1" pageScale="1" pageWidth="827" pageHeight="1169" math="0" shadow="0">
      <root>
        <mxCell id="0" />
        <mxCell id="1" parent="0" />
        <mxCell id="cPin41Ng9xytVoDYroOl-24" style="edgeStyle=orthogonalEdgeStyle;rounded=0;orthogonalLoop=1;jettySize=auto;html=1;entryX=0;entryY=0.5;entryDx=0;entryDy=0;" edge="1" parent="1" source="cPin41Ng9xytVoDYroOl-1" target="cPin41Ng9xytVoDYroOl-3">
          <mxGeometry relative="1" as="geometry" />
        </mxCell>
        <mxCell id="cPin41Ng9xytVoDYroOl-25" style="edgeStyle=orthogonalEdgeStyle;rounded=0;orthogonalLoop=1;jettySize=auto;html=1;entryX=0;entryY=0.5;entryDx=0;entryDy=0;" edge="1" parent="1" source="cPin41Ng9xytVoDYroOl-1" target="cPin41Ng9xytVoDYroOl-11">
          <mxGeometry relative="1" as="geometry" />
        </mxCell>
        <mxCell id="cPin41Ng9xytVoDYroOl-28" style="edgeStyle=orthogonalEdgeStyle;rounded=0;orthogonalLoop=1;jettySize=auto;html=1;entryX=0;entryY=0.5;entryDx=0;entryDy=0;" edge="1" parent="1" source="cPin41Ng9xytVoDYroOl-1" target="cPin41Ng9xytVoDYroOl-10">
          <mxGeometry relative="1" as="geometry" />
        </mxCell>
        <mxCell id="cPin41Ng9xytVoDYroOl-1" value="&lt;div&gt;ministry_member&lt;/div&gt;" style="shape=umlActor;verticalLabelPosition=bottom;verticalAlign=top;html=1;" vertex="1" parent="1">
          <mxGeometry x="90" y="115" width="30" height="60" as="geometry" />
        </mxCell>
        <mxCell id="cPin41Ng9xytVoDYroOl-3" value="view songs" style="ellipse;whiteSpace=wrap;html=1;" vertex="1" parent="1">
          <mxGeometry x="320" y="110" width="140" height="70" as="geometry" />
        </mxCell>
        <mxCell id="cPin41Ng9xytVoDYroOl-19" style="edgeStyle=orthogonalEdgeStyle;rounded=0;orthogonalLoop=1;jettySize=auto;html=1;exitX=0.5;exitY=0.5;exitDx=0;exitDy=0;exitPerimeter=0;" edge="1" parent="1" source="cPin41Ng9xytVoDYroOl-4">
          <mxGeometry relative="1" as="geometry">
            <mxPoint x="105" y="390" as="targetPoint" />
          </mxGeometry>
        </mxCell>
        <mxCell id="cPin41Ng9xytVoDYroOl-20" style="edgeStyle=orthogonalEdgeStyle;rounded=0;orthogonalLoop=1;jettySize=auto;html=1;entryX=0.5;entryY=1;entryDx=0;entryDy=0;fillColor=#a20025;strokeColor=#6F0000;" edge="1" parent="1" source="cPin41Ng9xytVoDYroOl-4" target="cPin41Ng9xytVoDYroOl-9">
          <mxGeometry relative="1" as="geometry" />
        </mxCell>
        <mxCell id="cPin41Ng9xytVoDYroOl-22" style="edgeStyle=orthogonalEdgeStyle;rounded=0;orthogonalLoop=1;jettySize=auto;html=1;entryX=0.5;entryY=1;entryDx=0;entryDy=0;" edge="1" parent="1" source="cPin41Ng9xytVoDYroOl-4" target="cPin41Ng9xytVoDYroOl-11">
          <mxGeometry relative="1" as="geometry" />
        </mxCell>
        <mxCell id="cPin41Ng9xytVoDYroOl-23" style="edgeStyle=orthogonalEdgeStyle;rounded=0;orthogonalLoop=1;jettySize=auto;html=1;entryX=0.5;entryY=1;entryDx=0;entryDy=0;" edge="1" parent="1" source="cPin41Ng9xytVoDYroOl-4" target="cPin41Ng9xytVoDYroOl-3">
          <mxGeometry relative="1" as="geometry" />
        </mxCell>
        <mxCell id="cPin41Ng9xytVoDYroOl-26" style="edgeStyle=orthogonalEdgeStyle;rounded=0;orthogonalLoop=1;jettySize=auto;html=1;entryX=0.5;entryY=1;entryDx=0;entryDy=0;" edge="1" parent="1" source="cPin41Ng9xytVoDYroOl-4" target="cPin41Ng9xytVoDYroOl-10">
          <mxGeometry relative="1" as="geometry" />
        </mxCell>
        <mxCell id="cPin41Ng9xytVoDYroOl-4" value="ministry_admin" style="shape=umlActor;verticalLabelPosition=bottom;verticalAlign=top;html=1;" vertex="1" parent="1">
          <mxGeometry x="90" y="390" width="30" height="60" as="geometry" />
        </mxCell>
        <mxCell id="cPin41Ng9xytVoDYroOl-9" value="manage users" style="ellipse;whiteSpace=wrap;html=1;" vertex="1" parent="1">
          <mxGeometry x="490" y="320" width="140" height="70" as="geometry" />
        </mxCell>
        <mxCell id="cPin41Ng9xytVoDYroOl-10" value="upload songs" style="ellipse;whiteSpace=wrap;html=1;" vertex="1" parent="1">
          <mxGeometry x="240" y="30" width="140" height="70" as="geometry" />
        </mxCell>
        <mxCell id="cPin41Ng9xytVoDYroOl-11" value="organize songs" style="ellipse;whiteSpace=wrap;html=1;" vertex="1" parent="1">
          <mxGeometry x="414" y="220" width="140" height="70" as="geometry" />
        </mxCell>
      </root>
    </mxGraphModel>
  </diagram>
</mxfile>
